<?xml version="1.0" encoding="utf-8"?>
<svg xml:space="preserve" viewBox="0 0 100 100" y="0px" x="0px" xmlns="http://www.w3.org/2000/svg" id="圖層_1"
     version="1.1" width="200px" height="200px" style="width:100%;height:100%;animation-play-state:paused"><g class="ldl-scale" style="transform-origin:50% 50% 0px;transform:rotate(0deg) scale(0.8);animation-play-state:paused" ><path d="M82.06,59.76c1.94-0.33,3.57-1.51,4.25-3.29c0.95-2.52-0.34-5.41-2.93-6.92c1.37-0.54,2.46-1.55,2.98-2.93 c1.05-2.78-0.64-6-3.78-7.34c2.5-1.87,3.46-5.02,2.09-7.44c-1.38-2.44-4.63-3.27-7.54-2.04c0.08-1.83-0.62-3.56-2.07-4.61 c-1.81-1.32-4.27-1.2-6.28,0.07c-0.61-1.7-1.88-3.03-3.59-3.47c-2.25-0.58-4.59,0.53-5.98,2.6c-0.81-2.12-2.59-3.64-4.73-3.76 c-1.93-0.1-3.69,0.96-4.77,2.65c-1.44-1.49-3.44-2.18-5.36-1.64c-2.25,0.64-3.7,2.81-3.83,5.32c-1.49-0.23-2.99,0.11-4.14,1.07 c-1.39,1.16-1.97,2.96-1.75,4.8c-2.05-1.04-4.43-0.96-6.1,0.43c-1.77,1.48-2.24,3.99-1.39,6.31c-1.49-0.22-2.98,0.11-4.13,1.08 c-2.06,1.72-2.36,4.85-0.86,7.43c-1.91,0.16-3.61,1.14-4.45,2.8c-0.99,1.96-0.52,4.33,1.01,6.1c-1.6,0.76-2.78,2.13-3.07,3.85 c-0.47,2.78,1.56,5.49,4.63,6.35c-1.99,2.08-2.47,5.07-0.99,7.21c1.24,1.8,3.53,2.52,5.8,2.05c0.14,0.15,0.28,0.3,0.43,0.45 c-0.27,1.37-0.05,2.77,0.75,3.93c1.59,2.31,4.9,2.84,7.69,1.36c0.1,0.03,0.2,0.07,0.3,0.11c0.35,2.42,1.94,4.41,4.18,4.88 c2.24,0.47,4.49-0.7,5.79-2.77c2.14,2.02,5.21,2.46,7.35,0.9c0.2-0.14,0.37-0.3,0.54-0.47c1.92,1.68,4.54,2.15,6.57,0.94 c2.17-1.29,3-4.07,2.2-6.72c2.21,1.04,4.74,0.82,6.37-0.79c1.25-1.23,1.7-3.01,1.38-4.78c3.04,0.72,6.07-0.58,7.06-3.18 c0.46-1.21,0.39-2.5-0.08-3.68c2.85,0.45,5.59-0.85,6.51-3.29C82.55,62.18,82.5,60.92,82.06,59.76z" stroke-miterlimit="10" stroke-linejoin="round" stroke-linecap="round" stroke-width="3.5" stroke="#333435" fill="#FFFFFF" style="stroke:rgb(0, 0, 0);fill:rgb(255, 255, 255);animation-play-state:paused" ></path>
<path d="M81.37,28.91l-1.64,1.81L56.59,56.3c-2.12,2.34-5.52,3.27-8.72,2.37l-22.97-6.4c-1.33-0.37-2.46-1-3.4-1.8 c-1.59-1.35-2.6-3.17-2.89-5.1L17.83,56.3l-0.05,0.77c-0.09,3.54,2.26,7.11,6.37,8.25l22.97,6.4c3.2,0.89,6.6-0.03,8.72-2.37 l24.78-27.38c0.73-0.81,1.25-1.7,1.57-2.64l0.27-3.88l0.7-9.99C82.89,26.68,82.31,27.87,81.37,28.91z" stroke-miterlimit="10" stroke-linejoin="round" stroke-linecap="round" stroke-width="3.5" stroke="#333435" fill="#F5E169" style="stroke:rgb(0, 0, 0);fill:rgb(235, 85, 79);animation-play-state:paused" ></path>
<g style="animation-play-state:paused" ><g style="animation-play-state:paused" ><path d="M81.37,28.91l-1.64,1.81L56.59,56.3c-2.12,2.34-5.52,3.27-8.72,2.37l-22.97-6.4c-1.33-0.37-2.46-1-3.4-1.8 c-1.59-1.35-2.6-3.17-2.89-5.1L17.83,56.3l-0.05,0.77c-0.09,3.54,2.26,7.11,6.37,8.25l22.97,6.4c3.2,0.89,6.6-0.03,8.72-2.37 l24.78-27.38c0.73-0.81,1.25-1.7,1.57-2.64l0.27-3.88l0.7-9.99C82.89,26.68,82.31,27.87,81.37,28.91z" stroke-miterlimit="10" stroke-linejoin="round" stroke-linecap="round" stroke-width="3.5" stroke="#000000" opacity="0.1" style="stroke:rgb(46, 157, 188);fill:rgb(46, 157, 188);animation-play-state:paused" ></path>
<path d="M76.96,15.79l-20.2-5.63c-3.01-0.84-6.21-0.07-8.35,1.99L20.86,38.77c-1.02,0.98-1.67,2.13-2.03,3.33l-0.23,3.28 c0.29,1.92,1.3,3.75,2.89,5.1c0.94,0.79,2.07,1.43,3.4,1.8l22.97,6.4c3.2,0.89,6.6-0.03,8.72-2.37l23.14-25.57l1.64-1.81 c0.95-1.04,1.52-2.23,1.8-3.46l0.16-2.25C83.06,19.94,80.73,16.84,76.96,15.79z" stroke-miterlimit="10" stroke-linejoin="round" stroke-linecap="round" stroke-width="3.5" stroke="#333435" fill="#F5E169" style="stroke:rgb(0, 0, 0);fill:rgb(235, 85, 79);animation-play-state:paused" ></path></g>
<g style="animation-play-state:paused" ><polygon points="66.74,45.15 26.4,34.29 33.95,26.8 73.28,37.6" stroke-miterlimit="10" stroke-linejoin="round" stroke-linecap="round" stroke-width="3.5" stroke="#333435" fill="#666868" style="stroke:rgb(0, 0, 0);animation-play-state:paused" ></polygon>
<path d="M76,70c-0.98,2.38-2.42,4.36-4.26,5.99c-1.11,0.98-2.86,0.31-2.96-1.17l-2.04-29.66l6.55-7.56L76,70z" stroke-miterlimit="10" stroke-linejoin="round" stroke-linecap="round" stroke-width="3.5" stroke="#333435" fill="#666868" style="stroke:rgb(0, 0, 0);animation-play-state:paused" ></path></g></g>
<metadata xmlns:d="https://loading.io/stock/" style="animation-play-state:paused" ><d:name style="animation-play-state:paused" >sushi</d:name>


<d:tags style="animation-play-state:paused" >sushi,rice,japanese food,egg,seaweed</d:tags>


<d:license style="animation-play-state:paused" >by</d:license>


<d:slug style="animation-play-state:paused" >wei1o6</d:slug></metadata></g><!-- generated by https://loading.io/ --></svg>