<?xml version="1.0" encoding="utf-8"?>
<svg xml:space="preserve" viewBox="0 0 100 100" y="0px" x="0px" xmlns="http://www.w3.org/2000/svg" id="圖層_1"
     version="1.1" width="200px" height="200px" style="width:100%;height:100%;animation-play-state:paused"><g class="ldl-scale" style="transform-origin:50% 50% 0px;transform:rotate(0deg) scale(0.8);animation-play-state:paused" ><path d="M82.06,59.76c1.94-0.33,3.57-1.51,4.25-3.29c0.95-2.52-0.34-5.41-2.93-6.92c1.37-0.54,2.46-1.55,2.98-2.93 c1.05-2.78-0.64-6-3.78-7.34c2.5-1.87,3.46-5.02,2.09-7.44c-1.38-2.44-4.63-3.27-7.54-2.04c0.08-1.83-0.62-3.56-2.07-4.61 c-1.81-1.32-4.27-1.2-6.28,0.07c-0.61-1.7-1.88-3.03-3.59-3.47c-2.25-0.58-4.59,0.53-5.98,2.6c-0.81-2.12-2.59-3.64-4.73-3.76 c-1.93-0.1-3.69,0.96-4.77,2.65c-1.44-1.49-3.44-2.18-5.36-1.64c-2.25,0.64-3.7,2.81-3.83,5.32c-1.49-0.23-2.99,0.11-4.14,1.07 c-1.39,1.16-1.97,2.96-1.75,4.8c-2.05-1.04-4.43-0.96-6.1,0.43c-1.77,1.48-2.24,3.99-1.39,6.31c-1.49-0.22-2.98,0.11-4.13,1.08 c-2.06,1.72-2.36,4.85-0.86,7.43c-1.91,0.16-3.61,1.14-4.45,2.8c-0.99,1.96-0.52,4.33,1.01,6.1c-1.6,0.76-2.78,2.13-3.07,3.85 c-0.47,2.78,1.56,5.49,4.63,6.35c-1.99,2.08-2.47,5.07-0.99,7.21c1.24,1.8,3.53,2.52,5.8,2.05c0.14,0.15,0.28,0.3,0.43,0.45 c-0.27,1.37-0.05,2.77,0.75,3.93c1.59,2.31,4.9,2.84,7.69,1.36c0.1,0.03,0.2,0.07,0.3,0.11c0.35,2.42,1.94,4.41,4.18,4.88 c2.24,0.47,4.49-0.7,5.79-2.77c2.14,2.02,5.21,2.46,7.35,0.9c0.2-0.14,0.37-0.3,0.54-0.47c1.92,1.68,4.54,2.15,6.57,0.94 c2.17-1.29,3-4.07,2.2-6.72c2.21,1.04,4.74,0.82,6.37-0.79c1.25-1.23,1.7-3.01,1.38-4.78c3.04,0.72,6.07-0.58,7.06-3.18 c0.46-1.21,0.39-2.5-0.08-3.68c2.85,0.45,5.59-0.85,6.51-3.29C82.55,62.18,82.5,60.92,82.06,59.76z" stroke-miterlimit="10" stroke-linejoin="round" stroke-linecap="round" stroke-width="3.5" stroke="#333435" fill="#FFFFFF" style="stroke:rgb(51, 52, 53);fill:rgb(255, 255, 255);animation-play-state:paused" ></path>
<g style="animation-play-state:paused" ><g style="animation-play-state:paused" ><path d="M76.35,49.28c-18.51,19.7-47.47,26.64-56.26,9.27c-7.71-15.23,8.57-35.71,30.02-43.68c14.52-5.4,27.81-0.64,33.68,5.87 C90.05,27.69,88.06,36.82,76.35,49.28z" stroke-miterlimit="10" stroke-linejoin="round" stroke-linecap="round" stroke-width="3.5" stroke="#333435" fill="#E15C64" style="stroke:rgb(51, 52, 53);fill:rgb(225, 92, 100);animation-play-state:paused" ></path>
<path d="M85.08,22.41c-1.4,4.45-4.72,9.49-10.13,15.26c-18.51,19.7-47.47,26.64-56.26,9.27c-0.07-0.14-0.12-0.28-0.19-0.42 c-0.75,4.16-0.32,8.26,1.59,12.04c8.79,17.37,37.75,10.43,56.26-9.27C87.15,37.79,89.66,29.13,85.08,22.41z" stroke-miterlimit="10" stroke-linejoin="round" stroke-linecap="round" stroke-width="3.5" stroke="#000000" opacity="0.1" style="animation-play-state:paused" ></path></g>
<path d="M43.52,17.8c15.25,1.68,29.8,6.05,43.66,13.11" stroke-miterlimit="10" stroke-linejoin="round" stroke-linecap="round" stroke-width="3.5" stroke="#000000" fill="none" opacity="0.2" style="animation-play-state:paused" ></path>
<path d="M34.53,23.5c16.76,2.92,31.97,10.82,43.98,23.39" stroke-miterlimit="10" stroke-linejoin="round" stroke-linecap="round" stroke-width="3.5" stroke="#000000" fill="none" opacity="0.2" style="animation-play-state:paused" ></path>
<path d="M26.31,31.26C41.93,34.62,54.16,44.72,63.41,60" stroke-miterlimit="10" stroke-linejoin="round" stroke-linecap="round" stroke-width="3.5" stroke="#000000" fill="none" opacity="0.2" style="animation-play-state:paused" ></path>
<path d="M20.35,40.6c11.86,2.53,19.74,11.16,25.29,26.99" stroke-miterlimit="10" stroke-linejoin="round" stroke-linecap="round" stroke-width="3.5" stroke="#000000" fill="none" opacity="0.2" style="animation-play-state:paused" ></path></g>
<metadata xmlns:d="https://loading.io/stock/" style="animation-play-state:paused" ><d:name style="animation-play-state:paused" >sushi</d:name>


<d:tags style="animation-play-state:paused" >sushi,salmon,rice,japanese food,sea food</d:tags>


<d:license style="animation-play-state:paused" >by</d:license>


<d:slug style="animation-play-state:paused" >t99s9s</d:slug></metadata></g><!-- generated by https://loading.io/ --></svg>